<?xml version="1.0" encoding="UTF-8" standalone="no"?>
<svg
   width="109"
   height="57"
   viewBox="0 0 109 57"
   fill="none"
   version="1.1"
   id="svg3"
   sodipodi:docname="logo2.svg"
   inkscape:version="1.3.2 (091e20e, 2023-11-25, custom)"
   xmlns:inkscape="http://www.inkscape.org/namespaces/inkscape"
   xmlns:sodipodi="http://sodipodi.sourceforge.net/DTD/sodipodi-0.dtd"
   xmlns="http://www.w3.org/2000/svg"
   xmlns:svg="http://www.w3.org/2000/svg">
  <sodipodi:namedview
     id="namedview3"
     pagecolor="#ffffff"
     bordercolor="#000000"
     borderopacity="0.25"
     inkscape:showpageshadow="2"
     inkscape:pageopacity="0.0"
     inkscape:pagecheckerboard="0"
     inkscape:deskcolor="#d1d1d1"
     showgrid="false"
     inkscape:zoom="15.105263"
     inkscape:cx="54.517422"
     inkscape:cy="28.5"
     inkscape:window-width="2498"
     inkscape:window-height="1057"
     inkscape:window-x="54"
     inkscape:window-y="-8"
     inkscape:window-maximized="1"
     inkscape:current-layer="svg3" />
  <path
     d="m 54.560976,43.515436 c 0,-1.0462 -32.588658,-5.765924 -31.548958,-5.650024 L 101.251,44.136 c 3.976,0.4434 -3.11993,-2.645192 6.91,-6.8877 -0.448,-4.1322 -22.733969,6.28951 -8.5766,-5.1177 L 70.4171,44.0151 c -1.1542,0.4703 -15.856124,0.746636 -15.856124,-0.499664 z"
     fill="url(#paint0_linear_2205_14)"
     id="path1"
     sodipodi:nodetypes="scccccs" />
  <path
     d="M 0.9,45 H 31.32 24.795 7.29 Z m 33.878,0 5.895,-32.535 z m 21.5131,0.45 C 0,0 0,0 56.2911,45.45 Z M 80.3668,28.08 C 0,0 0,0 80.3668,28.08 Z m 6.21,1.89 -4.5,-3.015 z"
     fill="white"
     id="path2"
     style="fill:#1a1a1a"
     sodipodi:nodetypes="ccccccccccccccccc" />
  <defs
     id="defs3">
    <linearGradient
       id="paint0_linear_2205_14"
       x1="219.1"
       y1="39.9983"
       x2="202.599"
       y2="91.4037"
       gradientUnits="userSpaceOnUse">
      <stop
         stop-color="#DF8908"
         id="stop2"
         offset="0"
         style="stop-color:#bd5e2a;stop-opacity:0.84981686;" />
      <stop
         offset="1"
         stop-color="#B415FF"
         id="stop3"
         style="stop-color:#540069;stop-opacity:1;" />
    </linearGradient>
  </defs>
  <path
     d="m 18.757532,40.509469 c -1.633771,0.863125 -3.668279,1.294687 -6.103524,1.294687 -3.1442397,0 -5.6616866,-1.012116 -7.5523406,-3.036349 -1.8906539,-2.024233 -2.8359809,-4.680396 -2.8359809,-7.96849 0,-3.534701 1.0634929,-6.391232 3.1904786,-8.569594 2.1269857,-2.178362 4.8242499,-3.267543 8.0917939,-3.267543 2.096159,0 3.832684,0.303121 5.209573,0.909363 v 2.758916 c -1.582395,-0.883675 -3.329194,-1.325513 -5.240399,-1.325513 -2.537998,0 -4.5981942,0.847712 -6.1805893,2.543135 -1.5721199,1.695424 -2.3581798,3.961126 -2.3581798,6.797107 0,2.692127 0.7346835,4.839663 2.2040504,6.442609 1.4796422,1.59267 3.4165347,2.389005 5.8106787,2.389005 2.219463,0 4.140943,-0.493214 5.764439,-1.479642 z m 20.198152,0.924777 h -2.866806 l -2.342767,-6.196002 h -9.371067 l -2.204051,6.196002 h -2.88222 L 27.76589,19.33209 h 2.681852 z M 32.898399,32.91089 29.430488,23.493584 c -0.113029,-0.308259 -0.226057,-0.801473 -0.339085,-1.479642 h -0.06165 C 28.927,22.640735 28.808835,23.133949 28.675256,23.493584 L 25.23817,32.91089 Z m 23.743126,8.523356 H 53.558937 L 49.859831,35.238244 C 49.520746,34.662827 49.191937,34.174751 48.873403,33.774015 48.554869,33.363003 48.22606,33.029056 47.886975,32.772174 47.558166,32.515291 47.19853,32.330336 46.808069,32.217308 46.427883,32.094004 45.996321,32.032352 45.513382,32.032352 h -2.126985 v 9.401894 H 40.797023 V 19.33209 h 6.596738 c 0.965877,0 1.85469,0.123304 2.666438,0.369911 0.822024,0.236331 1.531019,0.601104 2.126986,1.094318 0.606243,0.493214 1.078906,1.109732 1.417991,1.849553 0.339085,0.729546 0.508627,1.587533 0.508627,2.573961 0,0.770647 -0.118166,1.479643 -0.354498,2.126986 -0.226057,0.637068 -0.554866,1.207347 -0.986428,1.710836 -0.421287,0.503489 -0.935052,0.935052 -1.541294,1.294687 -0.595967,0.34936 -1.268999,0.621655 -2.019095,0.816886 v 0.06165 c 0.369911,0.164405 0.688445,0.354497 0.955602,0.570278 0.277433,0.205506 0.539453,0.452113 0.78606,0.739821 0.246607,0.287709 0.488077,0.616518 0.724408,0.986429 0.246607,0.359635 0.518903,0.780922 0.816886,1.263861 z M 43.386397,21.674857 v 8.014729 h 3.51415 c 0.647343,0 1.24331,-0.09761 1.787901,-0.292846 0.554866,-0.195231 1.032667,-0.472664 1.433403,-0.832299 0.400737,-0.369911 0.714133,-0.816886 0.94019,-1.340926 0.226056,-0.534315 0.339084,-1.130282 0.339084,-1.787901 0,-1.181659 -0.385323,-2.101297 -1.15597,-2.758916 -0.760372,-0.667894 -1.864966,-1.001841 -3.313782,-1.001841 z M 106.14546,45.340169 58.796702,45.075361 58.267085,19.33209 h 2.589374 l 0.198606,24.062525 45.156595,-0.0662 z M 80.623045,41.804156 c -3.133965,0 -5.646274,-1.032667 -7.536928,-3.098001 -1.880378,-2.065334 -2.820567,-4.752323 -2.820567,-8.060967 0,-3.555251 0.96074,-6.391232 2.882219,-8.507943 1.92148,-2.11671 4.536542,-3.175065 7.845187,-3.175065 3.051762,0 5.507557,1.027529 7.367385,3.082588 1.870103,2.055058 2.805155,4.742047 2.805155,8.060967 0,3.606628 -0.955602,6.458022 -2.866807,8.554182 -1.911205,2.096159 -4.469753,3.144239 -7.675644,3.144239 z M 80.808,21.304946 c -2.322216,0 -4.207732,0.837437 -5.656549,2.51231 -1.448816,1.674873 -2.173224,3.873785 -2.173224,6.596738 0,2.722953 0.703858,4.916728 2.111573,6.581325 1.41799,1.654322 3.262405,2.481483 5.533245,2.481483 2.424969,0 4.336174,-0.791197 5.733614,-2.373592 1.397439,-1.582395 2.096159,-3.796721 2.096159,-6.642977 0,-2.918183 -0.678169,-5.17361 -2.034508,-6.766281 -1.356339,-1.592671 -3.226442,-2.389006 -5.61031,-2.389006 z m 12.260494,19.235349 v -3.051762 c 0.34936,0.308259 0.765509,0.585692 1.248448,0.832299 0.493214,0.246607 1.006979,0.45725 1.541294,0.63193 0.544591,0.164405 1.089181,0.292846 1.633772,0.385324 0.54459,0.09248 1.048079,0.138716 1.510468,0.138716 1.592674,0 2.779464,-0.292846 3.560384,-0.878537 0.7912,-0.595967 1.1868,-1.448817 1.1868,-2.558548 0,-0.595967 -0.13358,-1.11487 -0.40074,-1.556707 -0.25688,-0.441838 -0.61651,-0.842574 -1.0789,-1.202209 -0.46239,-0.369911 -1.01212,-0.719271 -1.64919,-1.04808 -0.62679,-0.339085 -1.304958,-0.693582 -2.034504,-1.063493 -0.770647,-0.390461 -1.489917,-0.78606 -2.157811,-1.186797 -0.667894,-0.400736 -1.248448,-0.842573 -1.741662,-1.325512 -0.493215,-0.482939 -0.883676,-1.02753 -1.171384,-1.633772 -0.277433,-0.616517 -0.416149,-1.335788 -0.416149,-2.157812 0,-1.006979 0.220919,-1.880378 0.662756,-2.620199 0.441838,-0.750097 1.022392,-1.366614 1.741662,-1.849553 0.719271,-0.482939 1.536157,-0.842574 2.450658,-1.078906 0.924776,-0.236331 1.864964,-0.354497 2.820564,-0.354497 2.17837,0 3.7659,0.26202 4.7626,0.786059 v 2.913046 c -1.30496,-0.904226 -2.97983,-1.356339 -5.02462,-1.356339 -0.565139,0 -1.130279,0.06165 -1.69542,0.184956 -0.565141,0.113028 -1.06863,0.303121 -1.510468,0.570278 -0.441837,0.267158 -0.801472,0.61138 -1.078905,1.032667 -0.277433,0.421287 -0.41615,0.935052 -0.41615,1.541294 0,0.565141 0.102753,1.053218 0.308259,1.46423 0.215781,0.411011 0.529178,0.786059 0.940189,1.125144 0.411012,0.339085 0.909364,0.667894 1.495055,0.986428 0.595967,0.318535 1.279274,0.667895 2.04992,1.04808 0.7912,0.390461 1.5413,0.801473 2.25029,1.233035 0.70899,0.431563 1.33065,0.909364 1.86497,1.433404 0.53431,0.52404 0.9556,1.104594 1.26386,1.741662 0.31853,0.637068 0.4778,1.366614 0.4778,2.188637 0,1.089181 -0.21578,2.013958 -0.64734,2.77433 -0.42129,0.750096 -0.99671,1.361476 -1.72625,1.834139 -0.71927,0.472664 -1.55157,0.811749 -2.4969,1.017254 -0.94533,0.215781 -1.94203,0.323672 -2.990111,0.323672 -0.34936,0 -0.780922,-0.03083 -1.294687,-0.09248 -0.513765,-0.05137 -1.037805,-0.133576 -1.57212,-0.246607 -0.534315,-0.102753 -1.042942,-0.231195 -1.525881,-0.385324 -0.472663,-0.164405 -0.852849,-0.344222 -1.140557,-0.539453 z"
     id="text3"
     style="font-size:31.5657px;font-family:Ebrima;-inkscape-font-specification:Ebrima;text-align:center;letter-spacing:-1.41079px;word-spacing:0.483148px;text-anchor:middle;fill:#ffffff;fill-opacity:0.777202;stroke-width:1.76216"
     aria-label="CARLOS"
     sodipodi:nodetypes="csssssccscscsccccccccccccccccccccccccsccccscccsccccccscccccscccscsccccccccscssscsssssscsssssccccsscsccccsscscscsccscssscsccsscscccscccsc" />
</svg>
